<svg width="49" height="48" viewBox="0 0 49 48" fill="none" xmlns="http://www.w3.org/2000/svg">
<g id="add-team">
<path id="Vector" d="M24.5 15C24.5 18.866 21.366 22 17.5 22C13.634 22 10.5 18.866 10.5 15C10.5 11.134 13.634 8 17.5 8C21.366 8 24.5 11.134 24.5 15Z" stroke="#FF7E21" stroke-width="1.5"/>
<path id="Vector_2" d="M27.5 22C31.366 22 34.5 18.866 34.5 15C34.5 11.134 31.366 8 27.5 8" stroke="#FF7E21" stroke-width="1.5" stroke-linecap="round"/>
<path id="Vector_3" d="M26.7858 40H8.21428C6.16294 40 4.5 38.465 4.5 36.5714C4.5 31.8376 8.65736 28 13.7857 28H21.2142C23.3046 28 25.2338 28.6376 26.7858 29.7136" stroke="#FF7E21" stroke-width="1.5" stroke-linecap="round" stroke-linejoin="round"/>
<path id="Vector_4" d="M38.5 28V40M44.5 34H32.5" stroke="#FF7E21" stroke-width="1.5" stroke-linecap="round"/>
</g>
</svg>
