<svg width="48" height="48" viewBox="0 0 48 48" fill="none" xmlns="http://www.w3.org/2000/svg">
<g id="view">
<path id="Vector" d="M43.088 22.09C43.696 22.9426 44 23.369 44 24C44 24.631 43.696 25.0574 43.088 25.91C40.3558 29.7412 33.3784 38 24 38C14.6216 38 7.6442 29.7412 4.91208 25.91C4.30402 25.0574 4 24.631 4 24C4 23.369 4.30402 22.9426 4.91208 22.09C7.6442 18.2589 14.6216 10 24 10C33.3784 10 40.3558 18.2589 43.088 22.09Z" stroke="#FF7E21" stroke-width="1.5"/>
<path id="Vector_2" d="M30 24C30 20.6862 27.3138 18 24 18C20.6862 18 18 20.6862 18 24C18 27.3138 20.6862 30 24 30C27.3138 30 30 27.3138 30 24Z" stroke="#FF7E21" stroke-width="1.5"/>
</g>
</svg>
